<svg height="358.375" version="1.1" width="949.75" xmlns="http://www.w3.org/2000/svg" xmlns:xlink="http://www.w3.org/1999/xlink" style="overflow: hidden; position: relative; left: -0.400024px; top: -0.383331px;" viewBox="0 0 949.75 358.375" preserveAspectRatio="xMidYMid meet"><desc>Created with Raphaël @@VERSION</desc><defs><path stroke-linecap="round" d="M5,0 0,2.5 5,5z" id="raphael-marker-block"></path><marker id="raphael-marker-endblock33-obj4415" markerHeight="3" markerWidth="3" orient="auto" refX="1.5" refY="1.5"><use xlink:href="#raphael-marker-block" transform="rotate(180 1.5 1.5) scale(0.6,0.6)" stroke-width="1.6667" fill="black" stroke="none"></use></marker><marker id="raphael-marker-endblock33-obj4416" markerHeight="3" markerWidth="3" orient="auto" refX="1.5" refY="1.5"><use xlink:href="#raphael-marker-block" transform="rotate(180 1.5 1.5) scale(0.6,0.6)" stroke-width="1.6667" fill="black" stroke="none"></use></marker><marker id="raphael-marker-endblock33-obj4417" markerHeight="3" markerWidth="3" orient="auto" refX="1.5" refY="1.5"><use xlink:href="#raphael-marker-block" transform="rotate(180 1.5 1.5) scale(0.6,0.6)" stroke-width="1.6667" fill="black" stroke="none"></use></marker><marker id="raphael-marker-endblock33-obj4418" markerHeight="3" markerWidth="3" orient="auto" refX="1.5" refY="1.5"><use xlink:href="#raphael-marker-block" transform="rotate(180 1.5 1.5) scale(0.6,0.6)" stroke-width="1.6667" fill="black" stroke="none"></use></marker><marker id="raphael-marker-endblock33-obj4420" markerHeight="3" markerWidth="3" orient="auto" refX="1.5" refY="1.5"><use xlink:href="#raphael-marker-block" transform="rotate(180 1.5 1.5) scale(0.6,0.6)" stroke-width="1.6667" fill="black" stroke="none"></use></marker><marker id="raphael-marker-endblock33-obj4422" markerHeight="3" markerWidth="3" orient="auto" refX="1.5" refY="1.5"><use xlink:href="#raphael-marker-block" transform="rotate(180 1.5 1.5) scale(0.6,0.6)" stroke-width="1.6667" fill="black" stroke="none"></use></marker><marker id="raphael-marker-endblock33-obj4424" markerHeight="3" markerWidth="3" orient="auto" refX="1.5" refY="1.5"><use xlink:href="#raphael-marker-block" transform="rotate(180 1.5 1.5) scale(0.6,0.6)" stroke-width="1.6667" fill="black" stroke="none"></use></marker></defs><rect x="0" y="0" width="105" height="36" rx="20" ry="20" fill="#ffffff" stroke="#000000" style="" stroke-width="3" class="flowchart" id="st" transform="matrix(1,0,0,1,57,39.75)"></rect><text style="text-anchor: start; font-family: &quot;Arial&quot;; font-size: 14px;" x="10" y="18" text-anchor="start" font-family="&quot;Arial&quot;" font-size="14px" stroke="none" fill="#000000" id="stt" class="flowchartt" transform="matrix(1,0,0,1,57,39.75)" stroke-width="1"><tspan dy="5">Data ophalen</tspan></text><rect x="0" y="0" width="165" height="52.79999923706055" rx="0" ry="0" fill="#ffffff" stroke="#000000" style="" stroke-width="3" class="flowchart" id="op" transform="matrix(1,0,0,1,27,157.1)"></rect><text style="text-anchor: start; font-family: &quot;Arial&quot;; font-size: 14px;" x="10" y="26.399999618530273" text-anchor="start" font-family="&quot;Arial&quot;" font-size="14px" stroke="none" fill="#000000" id="opt" class="flowchartt" transform="matrix(1,0,0,1,27,157.1)" stroke-width="1"><tspan dy="-3.3999977111816406">Pagina('s) downloaden</tspan><tspan dy="16.8" x="10">en converteren</tspan></text><rect x="0" y="0" width="111" height="36" rx="0" ry="0" fill="#ffffff" stroke="#000000" style="" stroke-width="3" class="flowchart" id="wentDeeper" transform="matrix(1,0,0,1,296,165.5)"></rect><rect x="10" y="0" width="91" height="36" rx="0" ry="0" fill="#ffffff" stroke="#000000" style="" stroke-width="3" id="wentDeeperi" transform="matrix(1,0,0,1,296,165.5)"></rect><text style="text-anchor: start; font-family: &quot;Arial&quot;; font-size: 14px;" x="20" y="18" text-anchor="start" font-family="&quot;Arial&quot;" font-size="14px" stroke="none" fill="#000000" id="wentDeepert" class="flowchartt" transform="matrix(1,0,0,1,296,165.5)" stroke-width="1"><tspan dy="5">diepte += 1</tspan></text><path style="" fill="#ffffff" stroke="#000000" d="M46.125,23.0625L0,46.125L92.25,92.25L184.5,46.125L92.25,0L0,46.125" stroke-width="3" id="cond2" class="flowchart" transform="matrix(1,0,0,1,474.25,137.375)"></path><text style="text-anchor: start; font-family: &quot;Arial&quot;; font-size: 14px;" x="51.125" y="46.125" text-anchor="start" font-family="&quot;Arial&quot;" font-size="14px" stroke="none" fill="#000000" id="cond2t" class="flowchartt" transform="matrix(1,0,0,1,474.25,137.375)" stroke-width="1"><tspan dy="5">Dieper minen?</tspan></text><path style="" fill="#ffffff" stroke="#000000" d="M51.75,25.875L0,51.75L103.5,103.5L207,51.75L103.5,0L0,51.75" stroke-width="3" id="cond" class="flowchart" transform="matrix(1,0,0,1,714.75,131.75)"></path><text style="text-anchor: start; font-family: &quot;Arial&quot;; font-size: 14px;" x="56.75" y="51.75" text-anchor="start" font-family="&quot;Arial&quot;" font-size="14px" stroke="none" fill="#000000" id="condt" class="flowchartt" transform="matrix(1,0,0,1,714.75,131.75)" stroke-width="1"><tspan dy="5">Bevat data links?</tspan></text><rect x="0" y="0" width="121" height="36" rx="20" ry="20" fill="#ffffff" stroke="#000000" style="" stroke-width="3" class="flowchart" id="e" transform="matrix(1,0,0,1,506,319.375)"></rect><text style="text-anchor: start; font-family: &quot;Arial&quot;; font-size: 14px;" x="10" y="18" text-anchor="start" font-family="&quot;Arial&quot;" font-size="14px" stroke="none" fill="#000000" id="et" class="flowchartt" transform="matrix(1,0,0,1,506,319.375)" stroke-width="1"><tspan dy="5">Data opgehaald</tspan><tspan dy="16.8" x="10"></tspan></text><path style="" fill="none" stroke="#000000" d="M109.5,75.75C109.5,75.75,109.5,135.52221119716307,109.5,152.59581644635273" stroke-width="3" marker-end="url(#raphael-marker-endblock33-obj4415)"></path><path style="" fill="none" stroke="#000000" d="M192,183.5C192,183.5,271.5361576080322,183.5,291.4978690389544,183.5" stroke-width="3" marker-end="url(#raphael-marker-endblock33-obj4416)"></path><path style="" fill="none" stroke="#000000" d="M407,183.5C407,183.5,454.7101281285286,183.5,469.75931893469533,183.5" stroke-width="3" marker-end="url(#raphael-marker-endblock33-obj4417)"></path><path style="" fill="none" stroke="#000000" d="M658.75,183.5C658.75,183.5,696.95077085495,183.5,710.2501603176352,183.5" stroke-width="3" marker-end="url(#raphael-marker-endblock33-obj4418)"></path><text style="text-anchor: start; font-family: &quot;Arial&quot;; font-size: 14px;" x="663.75" y="173.5" text-anchor="start" font-family="&quot;Arial&quot;" font-size="14px" stroke="none" fill="#000000" stroke-width="1"><tspan dy="5">yes</tspan></text><path style="" fill="none" stroke="#000000" d="M566.5,229.625C566.5,229.625,566.5,296.70088551938534,566.5,314.87818847996095" stroke-width="3" marker-end="url(#raphael-marker-endblock33-obj4420)"></path><text style="text-anchor: start; font-family: &quot;Arial&quot;; font-size: 14px;" x="571.5" y="239.625" text-anchor="start" font-family="&quot;Arial&quot;" font-size="14px" stroke="none" fill="#000000" stroke-width="1"><tspan dy="5">no</tspan></text><path style="" fill="none" stroke="#000000" d="M921.75,183.5C921.75,183.5,946.75,183.5,946.75,183.5C946.75,183.5,946.75,132.10000038146973,946.75,132.10000038146973C946.75,132.10000038146973,109.5,132.10000038146973,109.5,132.10000038146973C109.5,132.10000038146973,109.5,145.4039716720581,109.5,152.60162801481783" stroke-width="3" marker-end="url(#raphael-marker-endblock33-obj4422)"></path><text style="text-anchor: start; font-family: &quot;Arial&quot;; font-size: 14px;" x="926.75" y="173.5" text-anchor="start" font-family="&quot;Arial&quot;" font-size="14px" stroke="none" fill="#000000" stroke-width="1"><tspan dy="5">yes</tspan></text><path style="" fill="none" stroke="#000000" d="M818.25,235.25C818.25,235.25,818.25,294.375,818.25,294.375C818.25,294.375,566.5,294.375,566.5,294.375C566.5,294.375,566.5,307.6789712905884,566.5,314.8766276333481" stroke-width="3" marker-end="url(#raphael-marker-endblock33-obj4424)"></path><text style="text-anchor: start; font-family: &quot;Arial&quot;; font-size: 14px;" x="823.25" y="245.25" text-anchor="start" font-family="&quot;Arial&quot;" font-size="14px" stroke="none" fill="#000000" stroke-width="1"><tspan dy="5">no</tspan></text></svg>